<svg width="512" height="512" viewBox="0 0 512 512" fill="none" xmlns="http://www.w3.org/2000/svg">
<rect width="512" height="512" fill="#694873"/>
<path d="M244.878 329.25H254.328V387H95.0783V377.9L114.328 375.8C118.062 375.333 120.278 374.4 120.978 373C121.678 371.6 122.028 366.817 122.028 358.65V177.35C122.028 169.183 121.678 164.4 120.978 163C120.278 161.6 118.062 160.667 114.328 160.2L95.0783 158.45V149H179.428V158.45L160.178 160.2C156.445 160.667 154.228 161.6 153.528 163C152.828 164.4 152.478 169.183 152.478 177.35V375.8H215.828C221.428 375.8 225.395 375.683 227.728 375.45C230.062 374.983 231.578 374.167 232.278 373C233.212 371.6 234.028 369.5 234.728 366.7L244.878 329.25ZM365.155 358.65V325.4H264.005V314.2C275.905 301.6 286.172 289.35 294.805 277.45C303.439 265.317 310.905 252.833 317.205 240C323.505 227.167 328.989 213.4 333.655 198.7C338.555 183.767 342.989 167.2 346.955 149H384.055C374.722 181.9 361.072 211.417 343.105 237.55C325.139 263.683 303.672 289.233 278.705 314.2H365.155V259.25L395.605 254.35V314.2H422.555V325.4H395.605V358.65C395.605 366.817 395.955 371.6 396.655 373C397.355 374.4 399.572 375.333 403.305 375.8L422.555 377.9V387H331.205V377.9L357.455 375.8C361.189 375.567 363.405 374.75 364.105 373.35C364.805 371.717 365.155 366.817 365.155 358.65Z" fill="#85B79D"/>
</svg>
